<?xml version="1.0" encoding="UTF-8" standalone="no"?>
<!-- Created with Inkscape (http://www.inkscape.org/) -->

<svg
   xmlns:dc="http://purl.org/dc/elements/1.1/"
   xmlns:cc="http://creativecommons.org/ns#"
   xmlns:rdf="http://www.w3.org/1999/02/22-rdf-syntax-ns#"
   xmlns:svg="http://www.w3.org/2000/svg"
   xmlns="http://www.w3.org/2000/svg"
   xmlns:sodipodi="http://sodipodi.sourceforge.net/DTD/sodipodi-0.dtd"
   xmlns:inkscape="http://www.inkscape.org/namespaces/inkscape"
   width="215.033mm"
   height="268.927mm"
   viewBox="0 0 215.033 268.927"
   version="1.1"
   id="svg8"
   inkscape:version="0.92.5 (2060ec1f9f, 2020-04-08)"
   sodipodi:docname="logo.svg">
  <defs
     id="defs2" />
  <sodipodi:namedview
     id="base"
     pagecolor="#ffffff"
     bordercolor="#666666"
     borderopacity="1.0"
     inkscape:pageopacity="0.0"
     inkscape:pageshadow="2"
     inkscape:zoom="0.49497475"
     inkscape:cx="369.78577"
     inkscape:cy="474.65878"
     inkscape:document-units="mm"
     inkscape:current-layer="layer1"
     showgrid="false"
     inkscape:window-width="1366"
     inkscape:window-height="704"
     inkscape:window-x="0"
     inkscape:window-y="0"
     inkscape:window-maximized="1" />
  <metadata
     id="metadata5">
    <rdf:RDF>
      <cc:Work
         rdf:about="">
        <dc:format>image/svg+xml</dc:format>
        <dc:type
           rdf:resource="http://purl.org/dc/dcmitype/StillImage" />
        <dc:title />
      </cc:Work>
    </rdf:RDF>
  </metadata>
  <g
     inkscape:label="Layer 1"
     inkscape:groupmode="layer"
     id="layer1"
     transform="translate(0,-28.073002)">
    <path
       style="fill:#000000;stroke-width:0.28801015"
       d="m 128.50881,296.56654 c 1.80065,-0.88949 1.94347,-1.66599 1.35221,-7.35217 -0.57896,-5.56787 -0.91377,-16.0105 -0.5951,-18.56102 0.33084,-2.64791 1.69232,-3.63764 6.15262,-4.47262 0.96196,-0.18009 9.12701,-0.38263 19.91885,-0.49411 18.12454,-0.18723 18.30339,-0.1948 19.93078,-0.84304 3.29826,-1.31378 5.46541,-4.03935 6.60423,-8.30595 0.52244,-1.95731 0.62627,-3.42718 0.78998,-11.18186 0.14977,-7.0945 0.27635,-9.08567 0.61625,-9.69444 0.23527,-0.42138 1.23219,-1.94436 2.21538,-3.38439 2.28723,-3.35001 3.25256,-6.21396 3.25256,-9.6497 v -2.3941 l 1.27222,-0.48586 c 1.85464,-0.70829 3.71849,-2.47715 4.49058,-4.2617 0.55935,-1.29283 0.69795,-2.30613 0.9174,-6.7071 0.14217,-2.8513 0.34975,-5.96181 0.46128,-6.91223 l 0.20278,-1.72807 5.6162,-0.144 c 5.3249,-0.13654 5.70097,-0.18375 7.2507,-0.91023 3.23611,-1.51704 5.43896,-4.32617 5.95051,-7.58827 0.32476,-2.07099 -0.002,-4.95336 -0.80375,-7.09713 -0.83985,-2.2447 -4.80602,-10.20826 -11.31034,-22.70972 -3.09059,-5.94022 -6.40925,-12.37659 -7.37479,-14.30306 l -1.75555,-3.50268 0.58656,-0.74567 c 0.32259,-0.41013 1.15188,-1.07699 1.84285,-1.48192 3.70721,-2.17257 5.61581,-6.566 5.61179,-12.91791 -0.002,-3.57901 -0.63294,-6.77877 -1.88485,-9.56299 -2.22769,-4.95427 -2.71723,-7.64836 -3.00323,-16.52786 -0.17462,-5.421609 -0.36801,-7.711991 -0.83482,-9.886923 C 193.49689,81.180753 188.20373,69.989026 180.85098,60.766887 166.81599,43.163629 145.29277,32.329153 117.89607,29.076311 105.04738,27.550774 86.882483,27.78583 74.332683,29.640033 52.888063,32.808422 36.168803,40.601367 23.523673,53.322414 3.456433,73.510123 -4.136687,101.37327 2.154853,131.73577 c 0.47595,2.29688 2.81071,12.34124 5.18837,22.32079 2.37765,9.97955 4.39655,18.92227 4.48644,19.8727 0.0899,0.95043 0.28088,1.80479 0.42444,1.89857 0.29498,0.19269 3.2504,13.26083 5.40021,23.87833 2.70689,13.3688 4.44562,23.75887 5.47039,32.68916 0.32719,2.8513 0.73626,6.41543 0.90904,7.92028 0.51383,4.47524 0.66608,16.4663 0.27328,21.52317 -0.85669,11.02917 -3.16666,21.02537 -6.53338,28.27266 -1.55496,3.34722 -1.59887,4.27367 -0.27126,5.72236 l 0.98589,1.07581 54.52807,0.0667 c 50.228467,0.0614 54.604117,0.0291 55.492467,-0.40976 z m -8.30866,-30.47403 v -24.04885 h -4.58524 -4.58524 l -0.20306,1.89613 c -0.11168,1.04287 -0.14828,11.86485 -0.0813,24.04884 l 0.12172,22.15273 H 96.620943 c -7.83535,0 -14.19209,-0.0496 -14.12609,-0.11014 0.066,-0.0606 2.32329,-0.53049 5.01618,-1.04429 2.69289,-0.51379 4.99263,-1.02077 5.11053,-1.12665 0.11789,-0.10587 -0.50177,-3.8805 -1.37703,-8.38804 -4.12293,-21.23292 -6.26132,-31.83263 -6.46623,-32.05221 -0.17752,-0.19022 -6.55791,0.9157 -10.03872,1.74002 -0.62287,0.14751 -0.66003,0.25992 -0.48085,1.45473 0.10679,0.71218 0.26242,1.47271 0.34582,1.69006 0.12338,0.32151 -0.4985,0.3952 -3.33528,0.3952 h -3.48694 v 4.89617 4.89617 h 3.59152 3.59153 l 0.0806,-3.60016 0.0806,-3.60016 3.48314,17.43293 3.48314,17.4329 -3.59081,-0.0802 -3.5908,-0.0803 -0.0363,-13.24846 -0.0363,-13.24847 -3.52813,-0.0808 -3.52812,-0.0809 v 13.40133 13.40134 h -0.86403 -0.86403 v -18.57666 -18.57665 h -4.32015 -4.32016 v 18.57665 18.57666 h -0.86687 -0.86686 l 0.0749,-18.50465 0.0749,-18.50466 -3.67212,-0.0806 -3.67213,-0.0806 v 18.58526 18.58526 h -0.72002 -0.72003 v -22.17678 -22.17679 h -5.76021 -5.7602 v 22.17679 22.17678 h -5.04017 c -2.77211,0 -5.04019,-0.0752 -5.04019,-0.16705 0,-0.0919 0.39707,-1.29074 0.88238,-2.66409 2.04592,-5.78978 3.78676,-13.98199 4.63116,-21.79373 0.41625,-3.85079 0.51829,-17.82933 0.16557,-22.6808 l -0.2251,-3.09611 h 72.443467 72.44364 l -0.01,5.97621 c -0.0163,9.70726 -0.73563,12.14526 -3.80608,12.90018 l -0.79202,0.19473 v -2.1913 -2.1913 h 1.00803 1.00803 v -1.58405 -1.58406 h -1.00803 -1.00803 v -2.70585 -2.70584 l -1.22405,-0.12005 c -0.67323,-0.066 -9.64835,-0.11204 -19.94471,-0.10225 l -18.72066,0.0178 v 6.62423 6.62424 l 2.44808,0.16235 c 1.34645,0.0893 1.9828,0.18649 1.41413,0.216 -1.63126,0.0847 -5.24948,1.09628 -6.88468,1.9249 -0.82151,0.41629 -2.07611,1.29378 -2.78799,1.94996 -2.60006,2.39666 -3.25093,4.88727 -3.25388,12.45137 -0.002,4.68641 0.29122,10.04888 0.72794,13.32047 l 0.16341,1.22405 h -1.4577 -1.4577 V 266.0926 Z m -19.3183,22.66873 c 0.45288,-1.7145 4.19757,-17.58886 5.48334,-23.24475 0.64819,-2.8513 1.36265,-5.96181 1.58768,-6.91225 1.82101,-7.69103 2.45493,-10.65706 2.45493,-11.48634 0,-0.91674 -0.0776,-0.98763 -1.60557,-1.46826 -0.88307,-0.27776 -2.18766,-0.54165 -2.8991,-0.58643 -0.71143,-0.0448 -1.37137,-0.15928 -1.46653,-0.25444 -0.0952,-0.0952 -0.33363,-0.17302 -0.52996,-0.17302 -0.4042,0 -1.0512,2.57315 -5.286527,21.02475 -5.4263,23.64018 -5.17784,22.43586 -4.66005,22.58768 0.25475,0.0747 1.69442,0.41047 3.19928,0.74623 1.50485,0.33577 2.894557,0.66096 3.088247,0.72265 0.20586,0.0656 0.46934,-0.3315 0.63426,-0.95582 z M 74.785813,254.3741 c 0.0919,-0.22976 0.16019,-0.16151 0.17401,0.174 0.0125,0.30361 -0.0556,0.47372 -0.15127,0.37802 -0.0957,-0.0957 -0.10594,-0.34412 -0.0227,-0.55202 z m 93.248027,-22.23665 c 0.066,-0.0626 1.99886,-0.39704 4.29523,-0.74311 2.29637,-0.34609 4.20577,-0.65978 4.2431,-0.69712 0.0373,-0.0373 -0.0599,-0.83697 -0.21612,-1.77698 -0.15619,-0.94 -1.65548,-10.91103 -3.33174,-22.15782 -1.67627,-11.2468 -3.07533,-20.47659 -3.10901,-20.51066 -0.0337,-0.034 -2.12866,0.25479 -4.65549,0.64188 -2.52683,0.38709 -4.75624,0.70657 -4.95424,0.70996 -0.2675,0.005 -0.36002,-0.84501 -0.36002,-3.30598 v -3.31211 h -4.17614 -4.17615 l -1.2e-4,25.5609 -1.3e-4,25.5609 h -8.35225 -8.35224 l 8e-5,-28.15299 7e-5,-28.15299 h 33.69567 33.69567 l 2.57232,5.13862 c 3.85549,7.70196 4.19578,9.47198 2.16394,11.25595 l -1.00913,0.88604 -5.67818,0.002 c -6.11638,0.002 -7.33703,0.18986 -8.70598,1.34174 -1.80871,1.52194 -2.84604,5.05849 -2.86636,9.77224 -0.006,1.28221 -0.0952,3.72263 -0.19923,5.42316 -0.22569,3.68869 -0.38325,3.8714 -3.47528,4.0298 -2.23872,0.11469 -2.92353,0.38513 -3.80147,1.50125 -0.77467,0.98483 -0.77038,2.52497 0.0119,4.29356 0.50084,1.13222 0.58679,1.7716 0.47917,3.56473 -0.14743,2.4566 -0.85068,4.12662 -2.74912,6.52832 -0.62129,0.78599 -1.28422,1.71795 -1.47317,2.07103 -0.33353,0.62319 -0.47927,0.64194 -4.9896,0.64194 -2.55532,0 -4.59203,-0.0513 -4.52602,-0.11387 z m -18.00744,-9.7643 c 0.0789,-0.2056 0.10723,-6.36187 0.0629,-13.68058 -0.0443,-7.31872 0.0167,-13.30672 0.13552,-13.30666 0.11882,6e-5 0.21602,-0.51831 0.21602,-1.15193 v -1.15204 h -6.91224 -6.91224 v 1.15204 1.15204 l 0.43201,0.432 -0.0749,13.46448 4e-5,22.8245 c 6.26717,3.1e-4 6.26717,3.1e-4 12.993,3.1e-4 z m 0.4145,-31.5473 c 0,-0.60722 -0.0843,-1.18832 -0.18731,-1.29135 -0.10303,-0.10302 -0.20023,-0.80505 -0.21601,-1.56005 -0.0158,-0.75501 -0.1259,-1.40514 -0.2447,-1.44475 -0.1188,-0.0396 -3.07691,-0.072 -6.57358,-0.072 h -6.35758 l 0.0761,1.43332 c 0.0419,0.78833 -0.0134,1.52276 -0.12265,1.63206 -0.1093,0.1093 -0.19872,0.69554 -0.19872,1.30277 v 1.10403 h 6.91223 6.91225 z m 9.53034,19.7527 0.026,-21.67276 3.1033,20.44872 c 1.70682,11.24679 3.19697,20.99954 3.31144,21.67276 l 0.20812,1.22404 h -3.33743 -3.33743 l 0.026,-21.67276 z m -50.13978,20.79793 c 0,-0.46927 0.11938,-0.85322 0.26528,-0.85322 0.1459,0 1.38788,0.26661 2.75996,0.59248 1.37208,0.32587 2.90446,0.55268 3.40528,0.50402 l 0.91058,-0.0885 1.07939,-4.60817 c 5.32246,-22.72269 8.57021,-37.69734 8.22458,-37.92171 -0.51206,-0.33241 -3.022,-1.08058 -4.33264,-1.29149 l -2.01571,-0.31834 c -0.2172,0.0712 -1.53134,5.2012 -3.30779,12.91258 -1.62108,7.03696 -3.79196,16.38886 -4.82417,20.782 -1.03222,4.39313 -1.908,8.28127 -1.94619,8.6403 -0.0382,0.35904 -0.13538,-9.78038 -0.216,-22.53203 l -0.14658,-23.18479 h -8.20829 -8.208287 l -0.0736,24.12085 -0.0736,24.12085 h -0.71685 -0.71685 l -0.0736,-25.99291 -0.0736,-25.99292 h -5.04017 -5.04018 l -0.0736,26.01275 -0.0736,26.01274 -0.64648,-0.0918 -0.64649,-0.0918 0.10299,-18.28864 c 0.0567,-10.05876 0.007,-20.91314 -0.1115,-24.12085 l -0.21449,-5.83221 h -5.86471 -5.86471 v 24.19285 24.19285 h -0.86404 -0.86402 v -26.64093 -26.64095 h -7.16112 -7.16112 l -0.14391,4.39216 c -0.0791,2.41569 -0.0776,14.40411 0.003,26.64094 l 0.14745,22.24878 h -1.04901 -1.04902 l -0.0737,-23.39741 -0.0737,-23.39741 h -5.47221 -5.47219 l -0.0737,23.39741 -0.0737,23.39741 h -0.86069 -0.86069 l -0.0736,-24.12085 -0.0736,-24.12085 h -2.59209 -2.59209 v 24.04885 24.04885 l -0.74782,0.0869 -0.74781,0.0869 -0.4985,-3.83101 c -1.35329,-10.40033 -4.97339,-29.87044 -8.23608,-44.29642 -0.80609,-3.56413 -1.5403,-6.90144 -1.6316,-7.41626 l -0.16599,-0.93603 h 53.75183 53.751577 v 28.22212 28.22214 l -8.64031,-0.008 -8.6403,-0.008 z m -65.449507,-30.06672 -2.3892,2.28454 -0.0658,-6.12021 -0.0658,-6.12022 h 2.44809 2.44808 v 6.04821 c 0,3.32653 -0.0406,6.04822 -0.0901,6.04822 -2.28527,-2.14054 0,0 -2.28527,-2.14054 z m -2.63744,-15.238 5.0979,0.012 c -0.0856,2.38997 -0.0517,1.56511 -0.0856,2.38997 h -2.44808 l -2.54832,-0.0334 -0.0159,-2.36861 z M 185.00244,140.52008 v -27.79297 h -5.6162 -5.61619 v 27.80558 27.80561 l -2.08808,-0.0846 -2.08807,-0.0846 0.10401,-9.43234 0.10401,-9.43233 h -8.39161 -8.3916 l 0.0227,9.43233 0.0227,9.43234 -6.85567,0.0425 -6.85568,0.0425 6.04822,-1.50471 c 4.11092,-1.02274 6.07303,-1.63596 6.12573,-1.9145 0.0722,-0.38131 -11.0621,-45.76356 -11.28164,-45.98311 -0.0817,-0.0817 -10.60685,2.45937 -12.34071,2.97946 -0.45543,0.13662 -0.50402,-0.11443 -0.50402,-2.60431 l 2e-5,-2.7555 h -8.4963 -8.4963 v 25.92091 25.92091 h -1.7268 -1.72679 l -0.0732,-31.75312 -0.0732,-31.75312 h -6.912247 -6.91225 v 31.76573 31.76572 l -1.39476,-0.0846 -1.39477,-0.0846 0.02,-32.83316 c 0.0109,-18.05824 -0.0565,-33.38398 -0.14999,-34.0572 l -0.16996,-1.22405 h -7.02354 -7.02355 v 34.12921 34.1292 h -2.01607 -2.01607 V 132.16778 96.022505 h 58.880327 58.88043 l 0.14997,1.224049 c 0.0825,0.673225 0.21607,3.945746 0.29685,7.272256 0.19222,7.91557 0.73889,10.75353 3.27325,16.9926 1.38326,3.40533 1.91196,6.61738 1.51697,9.21632 -0.48922,3.21896 -0.86819,3.86988 -3.35744,5.76677 -3.87136,2.95009 -5.18179,5.76313 -4.28468,9.19775 0.25996,0.99523 2.68126,6.02727 5.76446,11.97986 2.92391,5.6451 5.31621,10.34867 5.31621,10.45239 0,0.10371 -2.98091,0.18856 -6.62424,0.18856 h -6.62423 z m -14.68852,6.78524 c 0,-0.94109 -0.12961,-1.79116 -0.28801,-1.88907 -0.18299,-0.11309 -0.28801,-3.79512 -0.28801,-10.09735 0,-6.4209 0.10158,-9.91935 0.28801,-9.91935 0.37831,0 0.37581,-3.37885 -0.002,-3.50499 -0.18731,-0.0624 -0.29725,-3.5516 -0.30932,-9.81634 l -0.0187,-9.71948 h -8.3381 -8.33812 l 0.022,9.71538 c 0.0149,6.55795 -0.0764,9.74819 -0.28088,9.81634 -0.38665,0.12888 -0.40099,3.50909 -0.0149,3.50909 0.18642,0 0.28801,3.49845 0.28801,9.91935 0,6.30223 -0.10502,9.98426 -0.28801,10.09735 -0.15841,0.0979 -0.28801,1.88907 -0.28801,1.88907 v 0 z m -42.89022,-1.38505 0.0233,-22.39279 1.97468,7.92028 c 1.08607,4.35615 3.58366,14.43291 5.55021,22.39279 l 3.57554,14.47251 h -5.57351 -5.57352 z m -79.514097,22.21625 c 0,-0.15361 9.99849,-31.30641 14.50214,-45.18506 l 1.58882,-4.89617 0.0188,25.12888 0.0188,25.12889 h -8.06429 c -4.43536,0 -8.06429,-0.0794 -8.06429,-0.17654 z m -11.70072,-0.32748 c 0.52879,-1.81902 9.14345,-45.9268 8.99828,-46.07196 -0.22874,-0.22874 -12.07434,-2.39349 -12.23239,-2.23544 -0.0984,0.0984 -0.38916,1.2389 -0.6461,2.5344 -4.0295,20.31725 -8.58114,43.81172 -8.5029,43.88996 0.0554,0.0553 2.41873,0.55439 5.25198,1.10899 2.83325,0.5546 5.28097,1.05882 5.43937,1.12048 0.15841,0.0616 -3.53715,0.12235 -8.21235,0.13485 l -8.50037,0.0228 -3.67674,-15.48055 c -6.12015,-25.76826 -6.57688,-28.122 -7.11651,-36.67437 -0.32615,-5.16904 -0.0443,-11.73102 0.72156,-16.798423 0.23731,-1.57026 0.43149,-2.963509 0.43149,-3.09611 0,-0.132609 12.57164,-0.241109 27.93698,-0.241109 h 27.93699 v 10.635302 10.63531 l -5.09194,-1.70323 c -2.80057,-0.93677 -5.12761,-1.66755 -5.1712,-1.62397 -0.12762,0.12762 -16.50685,51.0028 -16.43923,51.06154 0.0338,0.0293 2.2647,0.76765 4.95759,1.64067 l 4.89618,1.58731 -5.56361,0.0288 c -5.17006,0.0268 -5.55324,-0.007 -5.41708,-0.4752 z M 172.70254,76.815305 c -0.0327,-6.306236 -0.0651,-11.627883 -0.072,-11.82589 -0.009,-0.26814 -0.93125,-0.360012 -3.61266,-0.360012 h -3.60013 v 11.902544 11.902531 l -0.86404,-0.126804 -0.86402,-0.126821 V 72.228985 56.277108 h -3.16812 -3.16811 v 15.984566 15.984557 l -4.39215,0.0041 c -2.41569,0.0024 -4.71617,0.07593 -5.11218,0.163829 -0.51365,0.114052 -0.5962,0.08392 -0.28802,-0.105162 0.23762,-0.145777 2.16343,-0.634552 4.27958,-1.086172 2.11615,-0.45162 3.90393,-0.968046 3.97284,-1.147623 0.0689,-0.179577 -0.71172,-4.138676 -1.73475,-8.797998 -1.02301,-4.659315 -1.9244,-8.8603 -2.00307,-9.335517 -0.24493,-1.479371 -1.92457,-9.170984 -2.20128,-10.080356 -0.14461,-0.475216 -0.42933,-1.689283 -0.6327,-2.697926 -0.20338,-1.008644 -0.52301,-1.892694 -0.71028,-1.964555 -0.27635,-0.106045 -7.41797,1.309847 -9.03461,1.791196 -0.36656,0.109138 -0.41677,-0.263647 -0.33137,-2.460183 l 0.10067,-2.588814 h -4.20481 -4.2048 v 19.224677 19.224682 h -1.29605 -1.29604 V 65.997451 43.604662 h -4.46415 -4.46416 l -1.2e-4,22.392789 -1.2e-4,22.392786 h -1.51194 -1.51193 l -0.0736,-26.313855 -0.0736,-26.313854 1.36957,0.188474 c 14.63296,2.013729 26.57215,5.644495 36.21881,11.014326 13.36025,7.437004 23.13748,17.541702 29.63208,30.624535 1.96299,3.954298 4.20911,9.595562 4.20911,10.571446 0,0.397867 -0.8287,0.429585 -7.41626,0.283897 l -7.41626,-0.164024 z M 138.9778,69.669583 c -0.007,-13.061692 0.0861,-14.317267 0.77057,-10.368368 0.1905,1.099043 5.422,24.857668 6.2288,28.287833 0.14789,0.628756 0.0967,0.640137 -3.23704,0.720022 l -3.38731,0.08115 -0.18376,-2.592092 c -0.10108,-1.42565 -0.18715,-8.683505 -0.19126,-16.128571 z m -31.92615,15.408541 c -0.037,-2.779938 -0.11795,-3.327078 -0.50402,-3.405241 -0.39384,-0.07976 -0.45998,-0.649174 -0.45998,-3.960135 v -3.867016 h -0.86404 -0.86402 v -2.304088 c 0,-2.112069 0.048,-2.304079 0.57602,-2.304079 0.55327,0 0.57602,-0.192008 0.57602,-4.862582 0,-4.634807 0.0272,-4.869702 0.5812,-5.014568 0.56555,-0.147896 0.57912,-0.340618 0.50401,-7.161842 l -0.0772,-7.009855 H 84.486873 62.454093 l -0.0771,6.984246 -0.0772,6.984246 h -2.01095 -2.01095 l 5.7e-4,4.968175 5.8e-4,4.968175 h -1.51256 -1.51257 l -0.0832,2.520091 -0.0832,2.520084 h 2.45931 2.4593 v 3.744132 3.744138 h -1.00804 -1.00803 v 3.312113 3.312113 h -3.60013 -3.60012 V 71.829656 55.413078 h -5.18419 -5.18418 l 2.8e-4,16.488585 3e-4,16.488574 -1.56284,-0.0974 -1.56283,-0.09741 -0.008,-11.278993 c -0.005,-6.20345 -0.0144,-11.505803 -0.0216,-11.783013 -0.0118,-0.452432 -0.38164,-0.504017 -3.6133,-0.504017 -3.23112,0 -3.60163,0.05166 -3.61474,0.504017 -0.008,0.27721 -0.0196,5.591001 -0.0256,11.80842 l -0.011,11.304391 h -2.13447 -2.13447 v -9.936347 -9.936349 h -2.01606 -2.01608 v 9.89366 9.893664 l -2.37608,0.184966 c -1.30685,0.101732 -3.90767,0.18574 -5.77961,0.186695 -3.93837,0.0016 -3.67247,0.531987 -2.02209,-4.03042 1.3974,-3.863 4.89982,-10.83806 7.23102,-14.400508 13.36189,-20.419725 32.9811,-31.16805 62.85248,-34.433757 4.53329,-0.495605 23.455447,-0.922652 25.735057,-0.580804 l 1.33789,0.200631 v 26.642421 26.642424 l -0.79203,-0.09113 -0.79203,-0.09114 z"
       id="path93"
       inkscape:connector-curvature="0"
       sodipodi:nodetypes="csccscssccsccccccccccccccccccssssscsccsssccccsccccccccscccsccccscccccccccccccccccccccccccccccccccccccccccsscssccccsccccccccccccscccccccccccccccccsccssscccccccccccccscscscccccccccccscccccsccccccsccccssccccccccccccccscccsccccccscccccccssccscccsccsccccccccccccccccccccccccccccccccccccccccccccccccccscccccccccccccccsccccccccccccccccccccccccscccccccccccccccccccccccccccccccccscccccssccccsscccccccsscscccccsscccccscccsccscsccscccsscssccccccscccsccccsccccccccccccccscccccccccccccccccccccccccssssccccsccccccccscccssscccccccccccccccccccccccccccccccccccscccccccccccscccsccccc" />
  </g>
</svg>
